<svg xmlns="http://www.w3.org/2000/svg" viewBox="0 0 1200 980" role="img" aria-label="Easy5のメインビジュアル">
  <defs>
    <linearGradient id="bg" x1="0" y1="0" x2="0" y2="1">
      <stop offset="0%" stop-color="#f8f2e8"/>
      <stop offset="100%" stop-color="#efe6d7"/>
    </linearGradient>
  </defs>
  <rect width="1200" height="980" fill="url(#bg)"/>
  <rect x="58" y="56" width="1084" height="868" rx="34" fill="#fffdfa" stroke="#e4ddd2" stroke-width="2"/>
  <rect x="90" y="90" width="470" height="800" rx="26" fill="#f8f3ea" stroke="#e4ddd2"/>
  <rect x="594" y="90" width="516" height="800" rx="26" fill="#fff" stroke="#e4ddd2"/>
  <rect x="120" y="132" width="380" height="56" rx="18" fill="#6baf92"/>
  <text x="124" y="160" font-family="system-ui, sans-serif" font-size="24" font-weight="900" fill="#fff">月額5,000円から</text>
  <text x="120" y="258" font-family="system-ui, sans-serif" font-size="42" font-weight="900" fill="#1d1b18">サロン・店舗専門の</text>
  <text x="120" y="318" font-family="system-ui, sans-serif" font-size="42" font-weight="900" fill="#1d1b18">サブスクホームページ。</text>
  <rect x="120" y="374" width="286" height="16" rx="8" fill="#d9c7a4"/>
  <rect x="120" y="420" width="300" height="320" rx="22" fill="#fff" stroke="#e4ddd2"/>
  <rect x="150" y="452" width="220" height="18" rx="9" fill="#6baf92"/>
  <rect x="150" y="490" width="260" height="12" rx="6" fill="#e4ddd2"/>
  <rect x="150" y="520" width="242" height="12" rx="6" fill="#e4ddd2"/>
  <rect x="150" y="550" width="222" height="12" rx="6" fill="#e4ddd2"/>
  <rect x="150" y="610" width="258" height="54" rx="27" fill="#1d1b18"/>
  <text x="178" y="645" font-family="system-ui, sans-serif" font-size="21" font-weight="800" fill="#fff">お問い合わせ</text>
  <rect x="618" y="128" width="452" height="230" rx="22" fill="#f8f3ea" stroke="#e4ddd2"/>
  <rect x="648" y="160" width="190" height="14" rx="7" fill="#6baf92"/>
  <rect x="648" y="192" width="280" height="12" rx="6" fill="#d9c7a4"/>
  <rect x="648" y="230" width="148" height="90" rx="16" fill="#fff" stroke="#e4ddd2"/>
  <rect x="820" y="230" width="210" height="90" rx="16" fill="#fff" stroke="#e4ddd2"/>
  <rect x="648" y="390" width="424" height="430" rx="22" fill="#f8f3ea" stroke="#e4ddd2"/>
  <g fill="#6baf92">
    <rect x="680" y="430" width="124" height="12" rx="6"/>
    <rect x="680" y="466" width="176" height="10" rx="5" opacity=".7"/>
    <rect x="680" y="500" width="200" height="10" rx="5" opacity=".7"/>
    <rect x="680" y="534" width="150" height="10" rx="5" opacity=".7"/>
    <rect x="680" y="610" width="320" height="18" rx="9"/>
    <rect x="680" y="650" width="240" height="18" rx="9" opacity=".8"/>
    <rect x="680" y="690" width="280" height="18" rx="9" opacity=".6"/>
  </g>
</svg>
