<svg xmlns="http://www.w3.org/2000/svg" viewBox="0 0 1600 900" role="img" aria-label="Easy5 メインビジュアル">
  <defs>
    <linearGradient id="bg" x1="0" y1="0" x2="0" y2="1">
      <stop offset="0%" stop-color="#eef6ea"/>
      <stop offset="100%" stop-color="#ffffff"/>
    </linearGradient>
    <linearGradient id="hero" x1="0" y1="0" x2="1" y2="1">
      <stop offset="0%" stop-color="#77B25D"/>
      <stop offset="100%" stop-color="#5f984a"/>
    </linearGradient>
  </defs>
  <rect width="1600" height="900" fill="url(#bg)"/>
  <rect x="80" y="110" width="1440" height="680" rx="42" fill="#fffdfa" stroke="#e3ddd1"/>
  <rect x="120" y="150" width="610" height="600" rx="28" fill="#f7f2e9"/>
  <rect x="770" y="150" width="610" height="600" rx="28" fill="#ffffff" stroke="#e3ddd1"/>
  <rect x="168" y="200" width="250" height="54" rx="18" fill="url(#hero)"/>
  <text x="190" y="236" font-family="system-ui, sans-serif" font-size="24" font-weight="800" fill="#fff">月額5,000円で始める</text>
  <text x="168" y="330" font-family="system-ui, sans-serif" font-size="42" font-weight="900" fill="#1d1b18">サロン・店舗専門の</text>
  <text x="168" y="388" font-family="system-ui, sans-serif" font-size="42" font-weight="900" fill="#1d1b18">サブスクホームページ。</text>
  <rect x="168" y="442" width="340" height="16" rx="8" fill="#d9c7a4"/>
  <rect x="168" y="500" width="320" height="220" rx="24" fill="#fff" stroke="#e3ddd1"/>
  <rect x="198" y="530" width="240" height="16" rx="8" fill="#77B25D"/>
  <rect x="198" y="570" width="290" height="12" rx="6" fill="#ddd5c9"/>
  <rect x="198" y="600" width="260" height="12" rx="6" fill="#ddd5c9"/>
  <rect x="198" y="630" width="250" height="12" rx="6" fill="#ddd5c9"/>
  <rect x="198" y="674" width="240" height="44" rx="22" fill="#1d1b18"/>
  <text x="250" y="703" font-family="system-ui, sans-serif" font-size="18" font-weight="800" fill="#fff">お問い合わせ</text>
  <rect x="820" y="190" width="520" height="180" rx="24" fill="#f7f2e9"/>
  <rect x="850" y="220" width="190" height="14" rx="7" fill="#77B25D"/>
  <rect x="850" y="254" width="300" height="12" rx="6" fill="#d9c7a4"/>
  <rect x="850" y="290" width="420" height="68" rx="18" fill="#fff" stroke="#e3ddd1"/>
  <rect x="850" y="390" width="520" height="330" rx="24" fill="#eef6ea" stroke="#e3ddd1"/>
  <rect x="888" y="430" width="140" height="14" rx="7" fill="#77B25D"/>
  <rect x="888" y="466" width="220" height="12" rx="6" fill="#9ab892"/>
  <rect x="888" y="502" width="270" height="12" rx="6" fill="#9ab892"/>
  <rect x="888" y="540" width="180" height="12" rx="6" fill="#9ab892"/>
  <rect x="888" y="610" width="300" height="16" rx="8" fill="#77B25D"/>
  <rect x="888" y="650" width="240" height="16" rx="8" fill="#77B25D" opacity=".8"/>
</svg>
