<svg xmlns="http://www.w3.org/2000/svg" viewBox="0 0 900 1350" role="img" aria-label="Easy5 メインビジュアル縦">
  <defs>
    <linearGradient id="bg" x1="0" y1="0" x2="0" y2="1">
      <stop offset="0%" stop-color="#f7f2e9"/>
      <stop offset="100%" stop-color="#fffdfa"/>
    </linearGradient>
  </defs>
  <rect width="900" height="1350" fill="url(#bg)"/>
  <rect x="48" y="120" width="804" height="1040" rx="36" fill="#fffdfa" stroke="#e3ddd1"/>
  <rect x="84" y="160" width="180" height="52" rx="18" fill="#77B25D"/>
  <rect x="84" y="260" width="370" height="16" rx="8" fill="#d9c7a4"/>
  <rect x="84" y="330" width="732" height="330" rx="28" fill="#f7f2e9"/>
  <rect x="118" y="370" width="220" height="14" rx="7" fill="#77B25D"/>
  <rect x="118" y="412" width="330" height="12" rx="6" fill="#9ab892"/>
  <rect x="118" y="444" width="280" height="12" rx="6" fill="#9ab892"/>
  <rect x="118" y="476" width="250" height="12" rx="6" fill="#9ab892"/>
  <rect x="84" y="722" width="732" height="170" rx="28" fill="#eef6ea" stroke="#e3ddd1"/>
  <rect x="118" y="766" width="240" height="14" rx="7" fill="#77B25D"/>
  <rect x="118" y="806" width="330" height="12" rx="6" fill="#9ab892"/>
  <rect x="118" y="838" width="250" height="12" rx="6" fill="#9ab892"/>
  <rect x="84" y="940" width="732" height="170" rx="28" fill="#fff" stroke="#e3ddd1"/>
  <rect x="118" y="984" width="260" height="14" rx="7" fill="#d9c7a4"/>
  <rect x="118" y="1020" width="340" height="12" rx="6" fill="#ddd5c9"/>
  <rect x="118" y="1052" width="280" height="12" rx="6" fill="#ddd5c9"/>
</svg>
