<svg xmlns="http://www.w3.org/2000/svg" viewBox="0 0 900 1350" role="img" aria-label="Easy5 メインビジュアル縦">
  <rect width="900" height="1350" fill="#f7f2e9"/>
  <rect x="48" y="120" width="804" height="1040" rx="36" fill="#fffdfa" stroke="#e3ddd1"/>
  <rect x="84" y="160" width="320" height="52" rx="18" fill="#77B25D"/>
  <text x="104" y="195" font-family="system-ui, sans-serif" font-size="24" font-weight="800" fill="#fff">月額5,000円で始める</text>
  <text x="84" y="300" font-family="system-ui, sans-serif" font-size="54" font-weight="900" fill="#1d1b18">サロン・店舗専門の</text>
  <text x="84" y="372" font-family="system-ui, sans-serif" font-size="54" font-weight="900" fill="#1d1b18">サブスクホームページ。</text>
  <rect x="84" y="430" width="260" height="16" rx="8" fill="#d9c7a4"/>
  <rect x="84" y="500" width="732" height="330" rx="28" fill="#f7f2e9"/>
  <rect x="118" y="540" width="170" height="14" rx="7" fill="#77B25D"/>
  <rect x="118" y="580" width="330" height="12" rx="6" fill="#d9c7a4"/>
  <rect x="118" y="616" width="280" height="12" rx="6" fill="#d9c7a4"/>
  <rect x="118" y="652" width="240" height="12" rx="6" fill="#d9c7a4"/>
  <rect x="84" y="870" width="732" height="170" rx="28" fill="#eef6ea" stroke="#e3ddd1"/>
  <rect x="118" y="914" width="240" height="14" rx="7" fill="#77B25D"/>
  <rect x="118" y="954" width="330" height="12" rx="6" fill="#9ab892"/>
  <rect x="118" y="986" width="250" height="12" rx="6" fill="#9ab892"/>
</svg>
