<svg xmlns="http://www.w3.org/2000/svg" viewBox="0 0 640 740" role="img" aria-label="ネイルサロン">
  <defs><linearGradient id="g" x1="0" y1="0" x2="0" y2="1"><stop offset="0%" stop-color="#fffdfa"/><stop offset="100%" stop-color="#f3ece1"/></linearGradient></defs>
  <rect width="640" height="740" rx="28" fill="url(#g)" stroke="#e4ddd2"/>
  <rect x="34" y="34" width="572" height="372" rx="22" fill="#f8f3ea" stroke="#e4ddd2"/>
  <rect x="58" y="58" width="200" height="18" rx="9" fill="#6baf92"/>
  <rect x="58" y="98" width="330" height="12" rx="6" fill="#d9c7a4"/>
  <rect x="58" y="128" width="260" height="12" rx="6" fill="#d9c7a4"/>
  <rect x="58" y="182" width="518" height="186" rx="18" fill="#fff" stroke="#e4ddd2"/>
  <rect x="70" y="194" width="494" height="162" rx="14" fill="#f0dfe4"/>
  <rect x="68" y="434" width="504" height="32" rx="16" fill="#6baf92"/>
  <rect x="68" y="486" width="200" height="14" rx="7" fill="#d9c7a4"/>
  <rect x="68" y="520" width="288" height="14" rx="7" fill="#d9c7a4"/>
  <rect x="68" y="560" width="170" height="82" rx="18" fill="#fff" stroke="#e4ddd2"/>
  <rect x="256" y="560" width="170" height="82" rx="18" fill="#fff" stroke="#e4ddd2"/>
  <rect x="444" y="560" width="128" height="82" rx="18" fill="#fff" stroke="#e4ddd2"/>
</svg>
