<svg xmlns="http://www.w3.org/2000/svg" viewBox="0 0 800 900" role="img" aria-label="全国対応を表現した日本地図アート">
  <defs>
    <linearGradient id="bg" x1="0" y1="0" x2="0" y2="1">
      <stop offset="0%" stop-color="#091225"/>
      <stop offset="100%" stop-color="#0f172a"/>
    </linearGradient>
    <linearGradient id="glow" x1="0" y1="0" x2="1" y2="1">
      <stop offset="0%" stop-color="#f0c35a"/>
      <stop offset="100%" stop-color="#f0c35a" stop-opacity="0"/>
    </linearGradient>
    <filter id="blur" x="-20%" y="-20%" width="140%" height="140%">
      <feGaussianBlur stdDeviation="10"/>
    </filter>
  </defs>

  <rect width="800" height="900" rx="32" fill="url(#bg)"/>
  <ellipse cx="380" cy="320" rx="250" ry="150" fill="url(#glow)" filter="url(#blur)" opacity="0.5"/>

  <g fill="none" stroke="#f0c35a" stroke-width="2" opacity="0.24">
    <path d="M80 180h640"/>
    <path d="M80 280h640"/>
    <path d="M80 380h640"/>
    <path d="M80 480h640"/>
    <path d="M80 580h640"/>
    <path d="M80 680h640"/>
  </g>

  <g transform="translate(120 120)">
    <path d="M250 40l48 40 28 58 24 20 12 54-32 30 4 42-26 46-4 44-30 20-40 54-42 8-48 38-34 2-10-58-44-36-10-50-24-26 2-46 26-28-6-52 18-40 24-10 16-52 42-30 18-44z" fill="#1a2640" stroke="#d8a53d" stroke-width="3"/>
    <g fill="#f0c35a">
      <circle cx="348" cy="146" r="10"/>
      <circle cx="302" cy="236" r="10"/>
      <circle cx="256" cy="330" r="10"/>
      <circle cx="198" cy="404" r="10"/>
      <circle cx="164" cy="490" r="10"/>
      <circle cx="88" cy="530" r="10"/>
      <circle cx="216" cy="520" r="10"/>
      <circle cx="280" cy="510" r="10"/>
      <circle cx="330" cy="412" r="10"/>
    </g>
    <g stroke="#f0c35a" stroke-width="2" opacity="0.6">
      <path d="M348 146L302 236L256 330L198 404L164 490L88 530"/>
      <path d="M164 490L216 520L280 510L330 412"/>
    </g>
    <g fill="#ffffff" opacity="0.85" font-family="Inter, sans-serif" font-size="18" font-weight="700">
      <text x="60" y="80">北海道</text>
      <text x="245" y="66">東北</text>
      <text x="330" y="550">沖縄</text>
    </g>
  </g>

  <g transform="translate(540 710)">
    <rect width="190" height="118" rx="18" fill="#101a31" stroke="#f0c35a" stroke-width="1.5"/>
    <text x="18" y="42" fill="#f0c35a" font-family="Inter, sans-serif" font-size="20" font-weight="700">北陸</text>
    <text x="18" y="80" fill="#ffffff" font-family="Inter, sans-serif" font-size="28" font-weight="800">4拠点</text>
  </g>
</svg>
