<svg xmlns="http://www.w3.org/2000/svg" viewBox="0 0 1200 900" role="img" aria-label="電気工事の作業と設備を表現した画像">
  <defs>
    <linearGradient id="bg" x1="0" y1="0" x2="1" y2="1">
      <stop offset="0%" stop-color="#0a1221"/>
      <stop offset="100%" stop-color="#1a2437"/>
    </linearGradient>
    <linearGradient id="gold" x1="0" y1="0" x2="1" y2="1">
      <stop offset="0%" stop-color="#f0c35a"/>
      <stop offset="100%" stop-color="#d8a53d"/>
    </linearGradient>
    <filter id="soft" x="-20%" y="-20%" width="140%" height="140%">
      <feGaussianBlur stdDeviation="14"/>
    </filter>
  </defs>
  <rect width="1200" height="900" rx="30" fill="url(#bg)"/>
  <ellipse cx="870" cy="170" rx="260" ry="100" fill="#f0c35a" opacity="0.16" filter="url(#soft)"/>
  <g>
    <rect x="60" y="120" width="1080" height="640" rx="28" fill="#10192e" stroke="#5f6f90" stroke-width="1.5"/>
    <rect x="92" y="150" width="430" height="580" rx="24" fill="#0e1728"/>
    <rect x="548" y="150" width="560" height="580" rx="24" fill="#162338"/>
  </g>
  <g opacity="0.75">
    <rect x="140" y="200" width="210" height="300" rx="18" fill="#202b41"/>
    <rect x="380" y="180" width="90" height="320" rx="16" fill="#2d3851"/>
    <rect x="580" y="210" width="130" height="230" rx="18" fill="#0d1626"/>
    <rect x="740" y="210" width="300" height="230" rx="18" fill="#111b2d"/>
    <rect x="580" y="470" width="460" height="180" rx="18" fill="#0d1626"/>
  </g>
  <g fill="#f0c35a" opacity="0.7">
    <circle cx="655" cy="300" r="12"/>
    <circle cx="700" cy="340" r="8"/>
    <circle cx="780" cy="280" r="10"/>
  </g>
  <g>
    <circle cx="225" cy="585" r="52" fill="#cfd6e6"/>
    <circle cx="225" cy="585" r="20" fill="#0d1626"/>
    <rect x="170" y="655" width="110" height="46" rx="22" fill="url(#gold)"/>
    <path d="M890 560h180" stroke="#f0c35a" stroke-width="10" stroke-linecap="round"/>
    <path d="M890 600h120" stroke="#d8a53d" stroke-width="10" stroke-linecap="round"/>
    <rect x="930" y="650" width="150" height="34" rx="17" fill="#f0c35a"/>
  </g>
</svg>
