<svg xmlns="http://www.w3.org/2000/svg" viewBox="0 0 800 900" role="img" aria-label="日本全国ネットワークを表現したブループリント地図">
  <defs>
    <linearGradient id="bg" x1="0" y1="0" x2="0" y2="1">
      <stop offset="0%" stop-color="#f9fbff"/>
      <stop offset="100%" stop-color="#eef4ff"/>
    </linearGradient>
    <linearGradient id="blue" x1="0" y1="0" x2="1" y2="1">
      <stop offset="0%" stop-color="#0B2A5B"/>
      <stop offset="100%" stop-color="#1D4ED8"/>
    </linearGradient>
    <linearGradient id="orange" x1="0" y1="0" x2="1" y2="1">
      <stop offset="0%" stop-color="#F97316"/>
      <stop offset="100%" stop-color="#FDBA74"/>
    </linearGradient>
  </defs>

  <rect width="800" height="900" rx="32" fill="url(#bg)"/>
  <g opacity="0.55">
    <path d="M70 150h660" stroke="#d9e4f1" stroke-width="2"/>
    <path d="M70 250h660" stroke="#d9e4f1" stroke-width="2"/>
    <path d="M70 350h660" stroke="#d9e4f1" stroke-width="2"/>
    <path d="M70 450h660" stroke="#d9e4f1" stroke-width="2"/>
    <path d="M70 550h660" stroke="#d9e4f1" stroke-width="2"/>
    <path d="M70 650h660" stroke="#d9e4f1" stroke-width="2"/>
    <path d="M70 750h660" stroke="#d9e4f1" stroke-width="2"/>
  </g>

  <g transform="translate(140 110)">
    <path d="M250 40l48 40 28 58 24 20 12 54-32 30 4 42-26 46-4 44-30 20-40 54-42 8-48 38-34 2-10-58-44-36-10-50-24-26 2-46 26-28-6-52 18-40 24-10 16-52 42-30 18-44z" fill="#ffffff" stroke="#cbd8ea" stroke-width="2"/>
    <path d="M250 40l48 40 28 58 24 20 12 54-32 30 4 42-26 46-4 44-30 20-40 54-42 8-48 38-34 2-10-58-44-36-10-50-24-26 2-46 26-28-6-52 18-40 24-10 16-52 42-30 18-44z" fill="none" stroke="url(#blue)" stroke-width="3"/>
    <g fill="url(#blue)">
      <circle cx="348" cy="146" r="10"/>
      <circle cx="302" cy="236" r="10"/>
      <circle cx="256" cy="330" r="10"/>
      <circle cx="198" cy="404" r="10"/>
      <circle cx="164" cy="490" r="10"/>
      <circle cx="88" cy="530" r="10"/>
      <circle cx="216" cy="520" r="10"/>
      <circle cx="280" cy="510" r="10"/>
      <circle cx="330" cy="412" r="10"/>
    </g>
    <g stroke="url(#blue)" stroke-width="2" opacity="0.6">
      <path d="M348 146L302 236L256 330L198 404L164 490L88 530"/>
      <path d="M164 490L216 520L280 510L330 412"/>
    </g>
  </g>

  <g transform="translate(490 690)">
    <rect width="230" height="118" rx="18" fill="#ffffff" stroke="#cbd8ea"/>
    <text x="18" y="42" fill="#0B2A5B" font-family="Inter, sans-serif" font-size="20" font-weight="800">全国4拠点</text>
    <text x="18" y="84" fill="#F97316" font-family="Inter, sans-serif" font-size="28" font-weight="800">広域対応</text>
  </g>
</svg>
