<svg xmlns="http://www.w3.org/2000/svg" viewBox="0 0 800 900" role="img" aria-label="協力会社ネットワークを表現した地図">
  <defs>
    <linearGradient id="bg" x1="0" y1="0" x2="0" y2="1">
      <stop offset="0%" stop-color="#0a1221"/>
      <stop offset="100%" stop-color="#111b31"/>
    </linearGradient>
    <linearGradient id="gold" x1="0" y1="0" x2="1" y2="1">
      <stop offset="0%" stop-color="#f0c35a"/>
      <stop offset="100%" stop-color="#d8a53d"/>
    </linearGradient>
  </defs>
  <rect width="800" height="900" rx="32" fill="url(#bg)"/>
  <g opacity="0.3" stroke="#8d98ae" stroke-width="1.5">
    <path d="M70 150h660"/>
    <path d="M70 250h660"/>
    <path d="M70 350h660"/>
    <path d="M70 450h660"/>
    <path d="M70 550h660"/>
    <path d="M70 650h660"/>
    <path d="M70 750h660"/>
  </g>
  <g transform="translate(120 110)">
    <path d="M250 40l48 40 28 58 24 20 12 54-32 30 4 42-26 46-4 44-30 20-40 54-42 8-48 38-34 2-10-58-44-36-10-50-24-26 2-46 26-28-6-52 18-40 24-10 16-52 42-30 18-44z" fill="#1b2943" stroke="url(#gold)" stroke-width="3"/>
    <g fill="url(#gold)">
      <circle cx="348" cy="146" r="10"/>
      <circle cx="302" cy="236" r="10"/>
      <circle cx="256" cy="330" r="10"/>
      <circle cx="198" cy="404" r="10"/>
      <circle cx="164" cy="490" r="10"/>
      <circle cx="88" cy="530" r="10"/>
      <circle cx="216" cy="520" r="10"/>
      <circle cx="280" cy="510" r="10"/>
      <circle cx="330" cy="412" r="10"/>
    </g>
    <g stroke="url(#gold)" stroke-width="2" opacity="0.8">
      <path d="M348 146L302 236L256 330L198 404L164 490L88 530"/>
      <path d="M164 490L216 520L280 510L330 412"/>
    </g>
  </g>
  <g transform="translate(500 690)">
    <rect width="230" height="118" rx="18" fill="#0d1626" stroke="url(#gold)" stroke-width="1.5"/>
    <text x="18" y="42" fill="#f0c35a" font-family="Inter, sans-serif" font-size="20" font-weight="800">全国4拠点</text>
    <text x="18" y="84" fill="#fff" font-family="Inter, sans-serif" font-size="28" font-weight="800">広域対応</text>
  </g>
</svg>
