<svg xmlns="http://www.w3.org/2000/svg" viewBox="0 0 1600 1100" role="img" aria-label="電気工事の現場とインフラを表現したヒーローアート">
  <defs>
    <linearGradient id="bg" x1="0" y1="0" x2="0" y2="1">
      <stop offset="0%" stop-color="#081123"/>
      <stop offset="100%" stop-color="#121c33"/>
    </linearGradient>
    <linearGradient id="nightGlow" x1="0" y1="0" x2="1" y2="1">
      <stop offset="0%" stop-color="#f0c35a" stop-opacity="0.9"/>
      <stop offset="100%" stop-color="#f0c35a" stop-opacity="0"/>
    </linearGradient>
    <linearGradient id="gold" x1="0" y1="0" x2="1" y2="1">
      <stop offset="0%" stop-color="#f4d37d"/>
      <stop offset="100%" stop-color="#d8a53d"/>
    </linearGradient>
    <linearGradient id="panel" x1="0" y1="0" x2="0" y2="1">
      <stop offset="0%" stop-color="#111b31"/>
      <stop offset="100%" stop-color="#0a1120"/>
    </linearGradient>
    <filter id="blur" x="-20%" y="-20%" width="140%" height="140%">
      <feGaussianBlur stdDeviation="14"/>
    </filter>
  </defs>

  <rect width="1600" height="1100" fill="url(#bg)"/>
  <ellipse cx="420" cy="220" rx="520" ry="180" fill="url(#nightGlow)" filter="url(#blur)" opacity="0.6"/>
  <ellipse cx="1280" cy="360" rx="420" ry="120" fill="#f0c35a" filter="url(#blur)" opacity="0.16"/>

  <g opacity="0.95">
    <rect x="70" y="60" width="1460" height="980" rx="42" fill="#0d162b"/>
    <rect x="100" y="90" width="1400" height="920" rx="36" fill="url(#panel)"/>
  </g>

  <g opacity="0.9">
    <rect x="110" y="110" width="770" height="630" rx="28" fill="#081123"/>
    <rect x="920" y="110" width="580" height="145" rx="28" fill="#1a2237"/>
    <rect x="920" y="275" width="580" height="145" rx="28" fill="#2a3348"/>
    <rect x="920" y="440" width="580" height="145" rx="28" fill="#1f2a3f"/>
    <rect x="920" y="605" width="580" height="135" rx="28" fill="#18253a"/>
  </g>

  <g opacity="0.3">
    <path d="M160 620h660" stroke="#5c6f94" stroke-width="6" stroke-linecap="round"/>
    <path d="M160 660h640" stroke="#5c6f94" stroke-width="4" stroke-linecap="round" stroke-dasharray="8 10"/>
    <path d="M160 700h640" stroke="#5c6f94" stroke-width="4" stroke-linecap="round" stroke-dasharray="8 10"/>
  </g>

  <g>
    <g opacity="0.55">
      <rect x="160" y="180" width="84" height="380" rx="10" fill="#27324a"/>
      <rect x="268" y="150" width="108" height="410" rx="10" fill="#2e3b56"/>
      <rect x="402" y="130" width="122" height="430" rx="10" fill="#21304a"/>
      <rect x="548" y="165" width="92" height="395" rx="10" fill="#28324c"/>
      <rect x="662" y="145" width="112" height="415" rx="10" fill="#36435d"/>
    </g>
    <g opacity="0.35">
      <rect x="175" y="220" width="54" height="8" rx="4" fill="#f0c35a"/>
      <rect x="285" y="190" width="74" height="8" rx="4" fill="#f0c35a"/>
      <rect x="430" y="170" width="82" height="8" rx="4" fill="#f0c35a"/>
      <rect x="565" y="205" width="58" height="8" rx="4" fill="#f0c35a"/>
      <rect x="684" y="185" width="78" height="8" rx="4" fill="#f0c35a"/>
    </g>
    <g transform="translate(110 520)">
      <rect width="770" height="220" rx="0" fill="#091224"/>
      <path d="M0 160h770" stroke="#f0c35a" stroke-opacity="0.25" stroke-width="2"/>
      <path d="M120 160c60-28 124-28 190 0 40 17 80 22 120 16 58-9 108-11 150-4 34 6 70 4 108-6 54-14 111-16 182-6" fill="none" stroke="#f0c35a" stroke-opacity="0.18" stroke-width="10"/>
    </g>
  </g>

  <g transform="translate(955 130)">
    <rect width="530" height="115" rx="18" fill="#0f1729" stroke="#8b6520" stroke-width="2"/>
    <text x="26" y="48" font-family="Inter, sans-serif" font-size="26" fill="#f0c35a" font-weight="700">年間稼働人数</text>
    <text x="26" y="92" font-family="Inter, sans-serif" font-size="54" fill="#f6d57d" font-weight="800">1.5万〜2万人!</text>
  </g>

  <g transform="translate(955 295)">
    <rect width="530" height="115" rx="18" fill="#0f1729" stroke="#8b6520" stroke-width="2"/>
    <text x="26" y="48" font-family="Inter, sans-serif" font-size="22" fill="#f0c35a" font-weight="700">稼働人数（1日あたり）</text>
    <text x="26" y="92" font-family="Inter, sans-serif" font-size="54" fill="#ffffff" font-weight="800">60〜100名!</text>
  </g>

  <g transform="translate(955 460)">
    <rect width="530" height="115" rx="18" fill="#0f1729" stroke="#8b6520" stroke-width="2"/>
    <text x="26" y="48" font-family="Inter, sans-serif" font-size="22" fill="#f0c35a" font-weight="700">協力会社ネットワーク</text>
    <text x="26" y="92" font-family="Inter, sans-serif" font-size="54" fill="#f6d57d" font-weight="800">全国350名!</text>
  </g>

  <g transform="translate(950 110)">
    <rect x="0" y="645" width="530" height="135" rx="18" fill="#0e1728" stroke="#8b6520" stroke-width="2"/>
    <text x="26" y="695" font-family="Inter, sans-serif" font-size="22" fill="#f0c35a" font-weight="700">全国対応</text>
    <text x="26" y="742" font-family="Inter, sans-serif" font-size="54" fill="#ffffff" font-weight="800">4拠点</text>
  </g>

  <g transform="translate(1145 110)">
    <rect width="355" height="135" rx="18" fill="#1a2234"/>
    <circle cx="55" cy="67" r="42" fill="#2d3850"/>
    <rect x="120" y="28" width="190" height="10" rx="5" fill="#f0c35a"/>
    <rect x="120" y="52" width="160" height="8" rx="4" fill="#8c97af"/>
    <rect x="120" y="72" width="180" height="8" rx="4" fill="#8c97af"/>
    <rect x="120" y="92" width="130" height="8" rx="4" fill="#8c97af"/>
  </g>

  <g transform="translate(1145 275)">
    <rect width="355" height="135" rx="18" fill="#22314a"/>
    <rect x="20" y="20" width="145" height="95" rx="12" fill="#1a2337"/>
    <circle cx="92" cy="68" r="28" fill="#c9ced7"/>
    <rect x="185" y="26" width="145" height="12" rx="6" fill="#f0c35a"/>
    <rect x="185" y="52" width="120" height="8" rx="4" fill="#8c97af"/>
    <rect x="185" y="72" width="130" height="8" rx="4" fill="#8c97af"/>
  </g>

  <g transform="translate(1145 440)">
    <rect width="355" height="135" rx="18" fill="#1d2a42"/>
    <rect x="18" y="18" width="100" height="99" rx="12" fill="#162033"/>
    <rect x="135" y="26" width="175" height="12" rx="6" fill="#f0c35a"/>
    <rect x="135" y="52" width="130" height="8" rx="4" fill="#8c97af"/>
    <rect x="135" y="72" width="150" height="8" rx="4" fill="#8c97af"/>
    <rect x="135" y="92" width="110" height="8" rx="4" fill="#8c97af"/>
  </g>

  <g transform="translate(1145 605)">
    <rect width="355" height="135" rx="18" fill="#0f1728"/>
    <text x="26" y="45" font-family="Inter, sans-serif" font-size="20" fill="#f0c35a" font-weight="700">お問い合わせ</text>
    <text x="26" y="94" font-family="Inter, sans-serif" font-size="28" fill="#ffffff" font-weight="700">グリュック合同会社</text>
  </g>

  <g opacity="0.7">
    <rect x="135" y="780" width="360" height="160" rx="20" fill="#121b30" stroke="#5f6f90" stroke-width="1"/>
    <rect x="520" y="780" width="360" height="160" rx="20" fill="#1a2335" stroke="#5f6f90" stroke-width="1"/>
    <rect x="905" y="780" width="560" height="160" rx="20" fill="#0f1728" stroke="#5f6f90" stroke-width="1"/>
  </g>
</svg>
