<svg xmlns="http://www.w3.org/2000/svg" viewBox="0 0 1600 1100" role="img" aria-label="Gluck合同会社のサイト構成をまとめた合成画像">
  <defs>
    <linearGradient id="bg" x1="0" y1="0" x2="0" y2="1">
      <stop offset="0%" stop-color="#07101f"/>
      <stop offset="100%" stop-color="#111b31"/>
    </linearGradient>
    <linearGradient id="panel" x1="0" y1="0" x2="1" y2="1">
      <stop offset="0%" stop-color="#121c33"/>
      <stop offset="100%" stop-color="#0b1222"/>
    </linearGradient>
    <linearGradient id="gold" x1="0" y1="0" x2="1" y2="1">
      <stop offset="0%" stop-color="#f0c35a"/>
      <stop offset="100%" stop-color="#d8a53d"/>
    </linearGradient>
    <filter id="blur" x="-20%" y="-20%" width="140%" height="140%">
      <feGaussianBlur stdDeviation="12"/>
    </filter>
  </defs>

  <rect width="1600" height="1100" fill="url(#bg)"/>
  <ellipse cx="380" cy="200" rx="430" ry="140" fill="#f0c35a" opacity="0.18" filter="url(#blur)"/>

  <g transform="translate(58 56)">
    <rect width="1484" height="988" rx="34" fill="#0d162a" stroke="#5f6f90" stroke-width="1.5"/>
    <rect x="24" y="24" width="1436" height="940" rx="28" fill="url(#panel)"/>

    <g opacity="0.9">
      <rect x="48" y="48" width="390" height="220" rx="18" fill="#10192e"/>
      <rect x="456" y="48" width="976" height="220" rx="18" fill="#081123"/>
      <rect x="48" y="286" width="640" height="300" rx="18" fill="#0d162a"/>
      <rect x="706" y="286" width="726" height="300" rx="18" fill="#162338"/>
      <rect x="48" y="604" width="460" height="324" rx="18" fill="#0b1222"/>
      <rect x="526" y="604" width="906" height="324" rx="18" fill="#111b31"/>
    </g>

    <g transform="translate(76 78)">
      <rect width="334" height="160" rx="16" fill="#0b1222" stroke="#f0c35a" stroke-width="1.2"/>
      <text x="22" y="42" font-family="Inter, sans-serif" font-size="22" fill="#f0c35a" font-weight="800">Gluck / グリュック合同会社</text>
      <text x="22" y="88" font-family="Inter, sans-serif" font-size="30" fill="#ffffff" font-weight="800">稼働力で、</text>
      <text x="22" y="130" font-family="Inter, sans-serif" font-size="30" fill="#ffffff" font-weight="800">現場を止めない。</text>
    </g>

    <g transform="translate(498 78)">
      <rect width="906" height="160" rx="16" fill="#0a1221"/>
      <rect x="18" y="18" width="870" height="124" rx="12" fill="#111b31" stroke="#f0c35a" stroke-width="1"/>
      <g fill="#f0c35a">
        <rect x="42" y="44" width="150" height="12" rx="6"/>
        <rect x="42" y="74" width="250" height="10" rx="5" opacity="0.7"/>
        <rect x="42" y="102" width="210" height="10" rx="5" opacity="0.7"/>
        <rect x="342" y="44" width="150" height="12" rx="6"/>
        <rect x="342" y="74" width="250" height="10" rx="5" opacity="0.7"/>
        <rect x="342" y="102" width="210" height="10" rx="5" opacity="0.7"/>
        <rect x="642" y="44" width="160" height="12" rx="6"/>
        <rect x="642" y="74" width="190" height="10" rx="5" opacity="0.7"/>
        <rect x="642" y="102" width="220" height="10" rx="5" opacity="0.7"/>
      </g>
    </g>

    <g transform="translate(76 316)">
      <text x="0" y="-18" font-family="Inter, sans-serif" font-size="20" fill="#f0c35a" font-weight="800">事業内容</text>
      <rect width="188" height="250" rx="16" fill="#10192e" stroke="#f0c35a" stroke-width="1.2"/>
      <rect x="206" width="188" height="250" rx="16" fill="#10192e" stroke="#f0c35a" stroke-width="1.2"/>
      <rect x="412" width="188" height="250" rx="16" fill="#10192e" stroke="#f0c35a" stroke-width="1.2"/>
      <text x="22" y="44" font-family="Inter, sans-serif" font-size="22" fill="#ffffff" font-weight="800">人材供給</text>
      <text x="22" y="78" font-family="Inter, sans-serif" font-size="15" fill="#b8c1d9">必要な人員を、必要なタイミングで。</text>
      <text x="228" y="44" font-family="Inter, sans-serif" font-size="22" fill="#ffffff" font-weight="800">現場管理</text>
      <text x="228" y="78" font-family="Inter, sans-serif" font-size="15" fill="#b8c1d9">工程・品質・安全を一元管理。</text>
      <text x="434" y="44" font-family="Inter, sans-serif" font-size="22" fill="#ffffff" font-weight="800">自社請負</text>
      <text x="434" y="78" font-family="Inter, sans-serif" font-size="15" fill="#b8c1d9">電気工事一式を自社で施工。</text>
      <g fill="#f0c35a">
        <rect x="22" y="150" width="144" height="10" rx="5"/>
        <rect x="228" y="150" width="144" height="10" rx="5"/>
        <rect x="434" y="150" width="144" height="10" rx="5"/>
        <rect x="22" y="176" width="116" height="10" rx="5" opacity="0.7"/>
        <rect x="228" y="176" width="116" height="10" rx="5" opacity="0.7"/>
        <rect x="434" y="176" width="116" height="10" rx="5" opacity="0.7"/>
      </g>
    </g>

    <g transform="translate(742 316)">
      <text x="0" y="-18" font-family="Inter, sans-serif" font-size="20" fill="#f0c35a" font-weight="800">施工実績</text>
      <rect width="676" height="250" rx="16" fill="#0a1221"/>
      <g>
        <rect x="14" y="14" width="154" height="105" rx="12" fill="#1b2943"/>
        <rect x="182" y="14" width="154" height="105" rx="12" fill="#202c46"/>
        <rect x="350" y="14" width="154" height="105" rx="12" fill="#162033"/>
        <rect x="518" y="14" width="144" height="105" rx="12" fill="#1b2943"/>
        <rect x="14" y="131" width="154" height="105" rx="12" fill="#162033"/>
        <rect x="182" y="131" width="154" height="105" rx="12" fill="#1b2943"/>
        <rect x="350" y="131" width="154" height="105" rx="12" fill="#202c46"/>
        <rect x="518" y="131" width="144" height="105" rx="12" fill="#162033"/>
      </g>
      <g fill="#f0c35a">
        <rect x="30" y="30" width="120" height="8" rx="4"/>
        <rect x="198" y="30" width="120" height="8" rx="4"/>
        <rect x="366" y="30" width="120" height="8" rx="4"/>
        <rect x="534" y="30" width="110" height="8" rx="4"/>
      </g>
    </g>

    <g transform="translate(76 644)">
      <text x="0" y="-18" font-family="Inter, sans-serif" font-size="20" fill="#f0c35a" font-weight="800">全国ネットワーク</text>
      <rect width="388" height="262" rx="16" fill="#10192e" stroke="#f0c35a" stroke-width="1.1"/>
      <path d="M66 68h256M66 118h256M66 168h256M66 218h256" stroke="#5f6f90" stroke-width="2" opacity="0.35"/>
      <path d="M170 58l46 22 18 36-10 34-34 22-38 8-32-10-18-28 2-38 22-24 44-22z" fill="#1b2943" stroke="#f0c35a" stroke-width="2"/>
      <circle cx="168" cy="128" r="7" fill="#f0c35a"/>
      <circle cx="210" cy="98" r="7" fill="#f0c35a"/>
      <circle cx="130" cy="152" r="7" fill="#f0c35a"/>
      <text x="26" y="246" font-family="Inter, sans-serif" font-size="18" fill="#ffffff" font-weight="700">全国350名 / 4拠点</text>
    </g>

    <g transform="translate(490 644)">
      <text x="0" y="-18" font-family="Inter, sans-serif" font-size="20" fill="#f0c35a" font-weight="800">お問い合わせ</text>
      <rect width="582" height="262" rx="16" fill="#0b1222" stroke="#f0c35a" stroke-width="1.1"/>
      <rect x="22" y="22" width="538" height="100" rx="12" fill="#10192e"/>
      <text x="42" y="58" font-family="Inter, sans-serif" font-size="20" fill="#f0c35a" font-weight="700">受付時間 9:00〜18:00</text>
      <text x="42" y="92" font-family="Inter, sans-serif" font-size="34" fill="#ffffff" font-weight="800">072-609-5552</text>
      <rect x="22" y="140" width="164" height="96" rx="12" fill="#10192e"/>
      <rect x="206" y="140" width="164" height="96" rx="12" fill="#10192e"/>
      <rect x="390" y="140" width="170" height="96" rx="12" fill="#10192e"/>
      <text x="42" y="178" font-family="Inter, sans-serif" font-size="18" fill="#ffffff" font-weight="700">問い合わせ</text>
      <text x="226" y="178" font-family="Inter, sans-serif" font-size="18" fill="#ffffff" font-weight="700">採用相談</text>
      <text x="412" y="178" font-family="Inter, sans-serif" font-size="18" fill="#ffffff" font-weight="700">協力会社募集</text>
    </g>
  </g>
</svg>
