<svg xmlns="http://www.w3.org/2000/svg" viewBox="0 0 1200 900" role="img" aria-label="ドローン訓練と活用シーンを表現した補助アート">
  <defs>
    <linearGradient id="bg2" x1="0" y1="0" x2="1" y2="1">
      <stop offset="0%" stop-color="#f7fbff"/>
      <stop offset="100%" stop-color="#e7f1ff"/>
    </linearGradient>
    <linearGradient id="panel" x1="0" y1="0" x2="0" y2="1">
      <stop offset="0%" stop-color="#ffffff"/>
      <stop offset="100%" stop-color="#eaf2ff"/>
    </linearGradient>
    <linearGradient id="line" x1="0" y1="0" x2="1" y2="1">
      <stop offset="0%" stop-color="#0F5EFF"/>
      <stop offset="100%" stop-color="#15C3FF"/>
    </linearGradient>
    <filter id="blur" x="-20%" y="-20%" width="140%" height="140%">
      <feGaussianBlur stdDeviation="16"/>
    </filter>
  </defs>

  <rect width="1200" height="900" rx="40" fill="url(#bg2)"/>
  <ellipse cx="330" cy="140" rx="240" ry="90" fill="#ffffff" opacity="0.7" filter="url(#blur)"/>

  <g opacity="0.92">
    <rect x="70" y="80" width="1060" height="620" rx="34" fill="url(#panel)"/>
    <rect x="110" y="120" width="980" height="540" rx="28" fill="#fafdff"/>
  </g>

  <g opacity="0.35">
    <path d="M160 520h840" stroke="#9db8e5" stroke-width="8" stroke-linecap="round"/>
    <path d="M190 560h780" stroke="#9db8e5" stroke-width="4" stroke-dasharray="12 12" stroke-linecap="round"/>
    <path d="M220 600h720" stroke="#9db8e5" stroke-width="4" stroke-dasharray="12 12" stroke-linecap="round"/>
  </g>

  <g transform="translate(770 330)">
    <circle cx="0" cy="0" r="72" fill="#0f172a" opacity="0.08" filter="url(#blur)"/>
    <circle cx="0" cy="0" r="42" fill="#111827"/>
    <circle cx="0" cy="0" r="14" fill="#fff" opacity="0.92"/>
    <g stroke="#24324d" stroke-width="16" stroke-linecap="round">
      <path d="M-120 -68 L-42 -18"/>
      <path d="M120 -68 L42 -18"/>
      <path d="M-120 68 L-42 18"/>
      <path d="M120 68 L42 18"/>
    </g>
    <g fill="url(#line)">
      <circle cx="-138" cy="-78" r="34"/>
      <circle cx="138" cy="-78" r="34"/>
      <circle cx="-138" cy="78" r="34"/>
      <circle cx="138" cy="78" r="34"/>
    </g>
  </g>

  <g transform="translate(140 150)">
    <rect width="360" height="250" rx="28" fill="#eaf3ff"/>
    <rect x="24" y="24" width="312" height="202" rx="22" fill="#ffffff"/>
    <rect x="48" y="56" width="170" height="12" rx="6" fill="#c7d6ee"/>
    <rect x="48" y="86" width="250" height="10" rx="5" fill="#dbe5f4"/>
    <rect x="48" y="114" width="220" height="10" rx="5" fill="#dbe5f4"/>
    <rect x="48" y="148" width="122" height="76" rx="18" fill="#eef4ff"/>
    <circle cx="108" cy="186" r="18" fill="url(#line)"/>
    <rect x="194" y="148" width="104" height="76" rx="18" fill="#f6f8ff"/>
    <path d="M220 176h50M220 194h34" stroke="#c6d1e6" stroke-width="8" stroke-linecap="round"/>
  </g>

  <g transform="translate(150 486)">
    <rect width="470" height="130" rx="28" fill="#ffffff" stroke="#d8e1f1"/>
    <rect x="28" y="26" width="104" height="78" rx="22" fill="#eef4ff"/>
    <path d="M60 86h40M80 46v40" stroke="url(#line)" stroke-width="10" stroke-linecap="round"/>
    <rect x="160" y="36" width="252" height="12" rx="6" fill="#c7d6ee"/>
    <rect x="160" y="62" width="210" height="10" rx="5" fill="#dbe5f4"/>
    <rect x="160" y="84" width="160" height="10" rx="5" fill="#dbe5f4"/>
  </g>
</svg>
