<svg xmlns="http://www.w3.org/2000/svg" viewBox="0 0 1600 1100" role="img" aria-label="RIVA CAFEのイタリアンカフェを表現したヒーローアート">
  <defs>
    <linearGradient id="bg" x1="0" y1="0" x2="0" y2="1">
      <stop offset="0%" stop-color="#fffaf3"/>
      <stop offset="55%" stop-color="#f4e6d1"/>
      <stop offset="100%" stop-color="#ead6bd"/>
    </linearGradient>
    <linearGradient id="wall" x1="0" y1="0" x2="1" y2="1">
      <stop offset="0%" stop-color="#ffffff" stop-opacity="0.98"/>
      <stop offset="100%" stop-color="#f4efe7" stop-opacity="0.98"/>
    </linearGradient>
    <linearGradient id="table" x1="0" y1="0" x2="1" y2="1">
      <stop offset="0%" stop-color="#d9c0a3"/>
      <stop offset="100%" stop-color="#b38e6b"/>
    </linearGradient>
    <radialGradient id="sun" cx="50%" cy="40%" r="70%">
      <stop offset="0%" stop-color="#fff5d8" stop-opacity="0.98"/>
      <stop offset="45%" stop-color="#f5d797" stop-opacity="0.56"/>
      <stop offset="100%" stop-color="#f5d797" stop-opacity="0"/>
    </radialGradient>
    <radialGradient id="plate" cx="50%" cy="48%" r="58%">
      <stop offset="0%" stop-color="#ffffff"/>
      <stop offset="68%" stop-color="#eef2f0"/>
      <stop offset="100%" stop-color="#cbd3cf"/>
    </radialGradient>
    <radialGradient id="pasta" cx="38%" cy="28%" r="80%">
      <stop offset="0%" stop-color="#ffe3bb"/>
      <stop offset="42%" stop-color="#f0a23a"/>
      <stop offset="100%" stop-color="#c86b4a"/>
    </radialGradient>
    <radialGradient id="espresso" cx="35%" cy="28%" r="82%">
      <stop offset="0%" stop-color="#ffffff"/>
      <stop offset="50%" stop-color="#efe7da"/>
      <stop offset="100%" stop-color="#a8907d"/>
    </radialGradient>
    <linearGradient id="cup" x1="0" y1="0" x2="1" y2="1">
      <stop offset="0%" stop-color="#ffffff"/>
      <stop offset="100%" stop-color="#dad3c8"/>
    </linearGradient>
    <linearGradient id="wine" x1="0" y1="0" x2="0" y2="1">
      <stop offset="0%" stop-color="#f9dfcb"/>
      <stop offset="100%" stop-color="#9a5740"/>
    </linearGradient>
    <filter id="soft" x="-20%" y="-20%" width="140%" height="140%">
      <feGaussianBlur stdDeviation="8"/>
    </filter>
    <filter id="blurBig" x="-30%" y="-30%" width="160%" height="160%">
      <feGaussianBlur stdDeviation="26"/>
    </filter>
  </defs>

  <rect width="1600" height="1100" fill="url(#bg)"/>

  <g opacity="0.95">
    <rect x="110" y="110" width="1380" height="740" rx="42" fill="url(#wall)"/>
    <rect x="110" y="110" width="1380" height="740" rx="42" fill="#fffdf8" opacity="0.45"/>
  </g>

  <g opacity="0.5" filter="url(#soft)">
    <ellipse cx="800" cy="260" rx="470" ry="180" fill="url(#sun)"/>
  </g>

  <g opacity="0.55">
    <rect x="200" y="170" width="420" height="240" rx="24" fill="#d7e2d5"/>
    <rect x="630" y="170" width="420" height="240" rx="24" fill="#eef5ef"/>
    <rect x="1060" y="170" width="340" height="240" rx="24" fill="#e5ece8"/>
    <rect x="220" y="194" width="380" height="16" rx="8" fill="#f8f2e4"/>
    <rect x="650" y="194" width="380" height="16" rx="8" fill="#f8f2e4"/>
    <rect x="1080" y="194" width="300" height="16" rx="8" fill="#f8f2e4"/>
  </g>

  <g opacity="0.38">
    <path d="M286 362c58-66 122-98 192-98 55 0 104 17 147 50" fill="none" stroke="#94a58a" stroke-width="18" stroke-linecap="round"/>
    <path d="M1232 390c-30-42-64-70-103-83-40-13-82-9-126 12" fill="none" stroke="#94a58a" stroke-width="18" stroke-linecap="round"/>
  </g>

  <g filter="url(#blurBig)" opacity="0.22">
    <ellipse cx="800" cy="845" rx="620" ry="120" fill="#7c5b45"/>
  </g>

  <g>
    <rect x="160" y="760" width="1280" height="180" rx="36" fill="url(#table)"/>
    <rect x="160" y="760" width="1280" height="180" rx="36" fill="#fff" opacity="0.16"/>
    <ellipse cx="800" cy="824" rx="540" ry="72" fill="#7f5e44" opacity="0.16"/>
  </g>

  <g transform="translate(0 16)">
    <ellipse cx="610" cy="720" rx="260" ry="188" fill="#000" opacity="0.1" filter="url(#soft)"/>
    <ellipse cx="610" cy="700" rx="246" ry="172" fill="url(#plate)"/>
    <ellipse cx="610" cy="696" rx="202" ry="138" fill="#fffefb"/>
    <ellipse cx="610" cy="696" rx="186" ry="124" fill="#f5e1be" opacity="0.52"/>

    <path d="M505 690c24-58 55-90 93-94 36-3 67 10 93 42 22 27 48 43 79 49 30 6 48 18 54 35 6 17 0 33-18 47-29 24-71 32-121 24-52-8-95-25-129-51-26-20-42-39-51-52z" fill="url(#pasta)"/>
    <path d="M516 674c24-49 52-76 86-79 31-2 58 8 82 31 19 18 40 30 65 35 25 5 40 14 44 28 4 13-1 25-14 35-22 17-57 23-104 18-49-5-87-18-115-39-20-15-34-29-44-43z" fill="#ffd28a" opacity="0.66"/>
    <path d="M525 651c25-29 52-46 80-50 33-4 61 2 84 17 22 14 46 22 73 25" fill="none" stroke="#fff8df" stroke-width="8" stroke-linecap="round" opacity="0.48"/>
    <path d="M552 739c44 15 84 18 120 10 28-6 53-20 75-40" fill="none" stroke="#c86b4a" stroke-width="10" stroke-linecap="round" opacity="0.34"/>
    <circle cx="712" cy="628" r="14" fill="#94a58a"/>
    <circle cx="480" cy="742" r="12" fill="#94a58a"/>
    <circle cx="744" cy="742" r="10" fill="#c86b4a"/>
  </g>

  <g transform="translate(0 20)">
    <ellipse cx="1030" cy="700" rx="138" ry="116" fill="#000" opacity="0.08" filter="url(#soft)"/>
    <ellipse cx="1030" cy="690" rx="124" ry="102" fill="url(#espresso)"/>
    <ellipse cx="1030" cy="690" rx="94" ry="74" fill="url(#cup)"/>
    <ellipse cx="1030" cy="690" rx="72" ry="52" fill="#2e241e" opacity="0.12"/>
    <ellipse cx="1030" cy="690" rx="60" ry="42" fill="#6a4a3b" opacity="0.28"/>
    <path d="M1122 676c26 4 42 16 42 34 0 18-16 30-42 34" fill="none" stroke="#eae1d2" stroke-width="18" stroke-linecap="round"/>
    <path d="M1110 679c17 3 26 11 26 23 0 12-9 20-26 23" fill="none" stroke="#a08b79" stroke-width="7" stroke-linecap="round" opacity="0.62"/>
    <path d="M980 610c-3-24 8-42 32-57" fill="none" stroke="#ffffff" stroke-width="6" stroke-linecap="round" opacity="0.54"/>
    <path d="M1014 594c-4-18 2-33 17-44" fill="none" stroke="#ffffff" stroke-width="5" stroke-linecap="round" opacity="0.44"/>
  </g>

  <g transform="translate(0 10)">
    <ellipse cx="1186" cy="694" rx="98" ry="116" fill="#000" opacity="0.08" filter="url(#soft)"/>
    <path d="M1188 606c-22 34-34 68-34 103 0 31 11 54 34 69 23-15 34-38 34-69 0-35-12-69-34-103z" fill="url(#wine)"/>
    <rect x="1178" y="776" width="20" height="78" rx="10" fill="#b8a08c"/>
    <rect x="1154" y="850" width="68" height="18" rx="9" fill="#e8dccf"/>
    <path d="M1155 614c-20-10-38-29-49-57" fill="none" stroke="#94a58a" stroke-width="7" stroke-linecap="round" opacity="0.8"/>
  </g>

  <g opacity="0.9">
    <path d="M360 514c40-26 84-39 131-39 61 0 119 16 176 44" fill="none" stroke="#94a58a" stroke-width="10" stroke-linecap="round"/>
    <path d="M1024 462c39 16 74 40 104 72" fill="none" stroke="#c86b4a" stroke-width="10" stroke-linecap="round"/>
    <circle cx="330" cy="500" r="20" fill="#94a58a"/>
    <circle cx="1370" cy="480" r="18" fill="#c86b4a"/>
    <circle cx="1312" cy="540" r="12" fill="#94a58a"/>
  </g>

  <g opacity="0.45">
    <path d="M210 430c120 60 244 85 372 75" stroke="#b3874c" stroke-width="2" fill="none"/>
    <path d="M1010 420c108 14 196 48 264 100" stroke="#b3874c" stroke-width="2" fill="none"/>
  </g>
</svg>
